<?xml version="1.0" encoding="UTF-8"?>
<svg id="Layer_1" data-name="Layer 1" xmlns="http://www.w3.org/2000/svg" viewBox="0 0 1080 1080">
  <defs>
    <style>
      .cls-1 {
        fill: #ed3035;
      }
    </style>
  </defs>
  <g>
    <path class="cls-1" d="M118.56521739,523.36633968c0-47.45621738,27.03016768-76.14962585,69.71583976-76.14962585,35.39646923,0,62.35274293,22.45625551,64.70106859,55.43050511h-30.01473304c-2.8367774-18.0764716-16.73135066-29.91704269-34.68633555-29.91704269-23.28787591,0-38.2820918,19.49673896-38.2820918,50.53847309,0,31.43374796,14.7988352,50.83154413,38.37978215,50.83154413,18.27310474,0,31.43374796-10.71462721,34.68758799-28.17990792h30.0134806c-3.4730171,32.87655924-28.66835966,53.69337034-64.79875894,53.69337034-42.88105278,0-69.71583976-28.6696121-69.71583976-76.2473162Z"/>
    <path class="cls-1" d="M260.32142621,542.25063531c0-35.4202656,21.42800199-56.94721037,54.18182208-56.94721037,32.7788689,0,54.20812332,21.42925443,54.20812332,56.94721037,0,36.03270893-21.13493094,57.16763988-54.20812332,57.16763988-33.07193994,0-54.18182208-21.23262129-54.18182208-57.16763988ZM338.40231509,542.34832566c0-21.74612184-9.39330264-34.29432172-23.8990668-34.29432172-14.48071535,0-23.97170834,12.54819989-23.97170834,34.29432172,0,21.94275497,9.27056349,34.29557416,23.97170834,34.29557416,14.60470695,0,23.8990668-12.35281919,23.8990668-34.29557416Z"/>
    <path class="cls-1" d="M378.81355549,487.6517506h28.76730245v19.49673896h.61119089c5.82134276-13.57645342,17.36759036-21.55074114,34.19788382-21.55074114,24.28982819,0,37.98902076,15.31233575,37.98902076,40.92474095v70.54746016h-29.81935235v-64.3103072c0-14.28533466-6.72685713-22.45625551-20.10792985-22.45625551-13.37982028,0-21.84381218,9.80911284-21.84381218,23.99800959v62.76855313h-29.79430354v-109.41819893Z"/>
    <path class="cls-1" d="M565.77409395,528.38111085c-1.73588233-11.54624761-9.39330264-19.71591602-21.64843149-19.71591602-14.67734849,0-23.87401799,12.45050954-23.87401799,33.58544048,0,21.52694477,9.19666951,33.78207362,23.99675715,33.78207362,11.937009,0,19.69211966-7.14266733,21.52569233-19.07967633h27.76409773c-1.51670527,25.83158226-20.81681109,42.46524258-49.60790991,42.46524258-32.97424959,0-53.88875103-21.45305079-53.88875103-57.16763988,0-35.10214575,20.91450144-56.94721037,53.69337034-56.94721037,29.59892284,0,48.36047932,18.27310474,49.70560026,43.07768591h-27.66640738Z"/>
    <path class="cls-1" d="M702.54058041,563.58094695c-3.25384003,21.42925443-22.87206571,35.83732824-49.9272822,35.83732824-33.65933447,0-53.88875103-21.55074114-53.88875103-56.55519654,0-34.9080175,20.4260497-57.55965371,52.78785596-57.55965371,31.82576179,0,51.95748801,21.52694477,51.95748801,54.79426541v9.1002316h-75.44074461v1.83482512c0,15.60665923,9.90805563,26.32128644,25.12270102,26.32128644,10.91000791,0,19.27630946-5.406785,22.04044532-13.77308655h27.34828753ZM628.34726638,530.92481721h46.4292163c-.61244333-13.99226361-9.68762612-23.58094695-22.96975606-23.58094695-13.06295287,0-22.45625551,9.90680319-23.45946024,23.58094695Z"/>
    <path class="cls-1" d="M822.25634391,542.34832566c0,35.22488491-16.95303261,56.4575062-44.30132014,56.4575062-15.92352664,0-28.17990792-7.75385822-34.00125068-20.10667741h-.61119089v54.08413173h-29.79430354v-145.13153557h29.40228971v19.08092877h.61119089c5.92028554-12.86757218,18.05392768-20.81681109,33.87976397-20.81681109,27.76409773,0,44.81482068,21.10988214,44.81482068,56.43245739ZM791.72811033,542.34832566c0-19.78855756-9.39330264-32.5584394-24.29108063-32.5584394-14.60345451,0-24.19213784,12.96526253-24.19213784,32.5584394,0,19.81485881,9.58868334,32.46074905,24.19213784,32.46074905,14.89777799,0,24.29108063-12.54819989,24.29108063-32.46074905Z"/>
    <path class="cls-1" d="M876.63354668,485.30342494c27.44723032,0,45.32832123,13.8707769,45.71908262,35.10339819h-27.44597788c-.61119089-8.78211175-7.65616787-14.18764431-18.68891494-14.18764431-10.29756458,0-17.04947051,4.69665132-17.04947051,11.7416283,0,5.40553256,4.69665132,9.07518279,14.28533466,11.3258181l20.93955025,4.50001819c21.94275497,4.89328446,30.82255707,13.57645342,30.82255707,29.89324633,0,21.55074114-19.78981,35.73838545-48.67985161,35.73838545-29.20690901,0-47.1618939-14.08995396-48.80008588-35.4202656h29.08416986c1.44406373,9.17287314,8.6844214,14.48071535,20.52374005,14.48071535,11.3258181,0,18.17541439-4.47622182,18.17541439-11.61888915,0-5.52827171-3.66965023-8.58673105-13.47876307-10.93505671l-20.2056202-4.47622182c-20.74291711-4.69665132-31.33480517-15.53276525-31.33480517-31.65292502,0-20.81806353,18.05267524-34.4922073,46.13364037-34.4922073Z"/>
  </g>
  <g>
    <path class="cls-1" d="M932.27640566,483.87707803v4.35418716h3.93833783v2.09147754h-3.93833783v8.18244722c0,1.88355287.51369624,2.94763794,2.05478495,2.94763794.73385177,0,1.24754801-.0978469,1.59001217-.18346294l.14677035,2.06701582c-.53815796.22015553-1.39431836.37915675-2.44617256.37915675-1.29647146,0-2.32386393-.41584934-2.98433053-1.16193197-.78277522-.81946781-1.07631593-2.16486272-1.07631593-3.95056869v-8.28029413h-2.34832566v-2.09147754h2.34832566v-3.63256626l2.71525154-.72162091Z"/>
    <path class="cls-1" d="M939.78615543,492.32860423c0-1.56555044-.04892345-2.84979104-.12230863-4.09733904h2.39724911l.12230863,2.44617256h.0978469c.8561604-1.44324181,2.27494048-2.78863672,4.7700365-2.78863672,2.07924668,0,3.64479712,1.24754801,4.30526371,3.03325398h.04892345c.46477279-.84392953,1.07631593-1.50439613,1.68785907-1.96916891.90508385-.69715918,1.9080146-1.06408506,3.35125641-1.06408506,2.0058615,0,4.99019203,1.30870232,4.99019203,6.58020419v8.92852985h-2.69078982v-8.5860657c0-2.91094535-1.07631593-4.6721896-3.30233296-4.6721896-1.56555044,0-2.78863672,1.16193197-3.25340951,2.50732688-.12230863.37915675-.22015553.88062212-.22015553,1.3820875v9.36884092h-2.69078982v-9.08753107c0-2.40947997-1.07631593-4.17072422-3.15556261-4.17072422-1.73678252,0-2.98433053,1.3820875-3.42464159,2.764175-.14677035.40361847-.22015553.86839126-.22015553,1.34539491v9.14868539h-2.69078982v-11.06893085Z"/>
  </g>
</svg>